# xmcd
#
# Track frame offsets:
#	150
#	60412
#	94430
#	110332
#	151280
#	176935
#	190035
#	207407
#	227072
#	234832
#	246425
#	269860
#	288417
#	306177
#	319190
#	330225
#
# Disc length: 4650 seconds
#
# Revision: 1
# Processed by: cddbd v1.5.2PL0 Copyright (c) Steve Scherf et al.
# Submitted via: EZCDAudioConverter 2.1.7.1
#
DISCID=e7122810
DTITLE=Marvin Gaye - What's Going On 2/2
DYEAR=1900
DGENRE=
TTITLE0=Sixties Medley [Live]
TTITLE1=Right On [Live]
TTITLE2=Wholy Holy [Live]
TTITLE3=Inner City Blues (Make Me Wanna Holler) [Live]
TTITLE4=What's Going On [Live]
TTITLE5=What's Happening Brother [Live]
TTITLE6=Flyin' High (In The Friendly Sky) [Live]
TTITLE7=Save The Children [Live]
TTITLE8=God Is Love [Live]
TTITLE9=Stage Dialogue [Live]
TTITLE10=Inner City Blues (Make Me Wanna Holler) (Reprise) [Live]
TTITLE11=What's Going On (Reprise) [Live]
TTITLE12=What's Going On [Single Version]
TTITLE13=God Is Love [Single Version]
TTITLE14=Sad Tomorrows [Single Version]
TTITLE15=''Head Title'' aka Distant Lover
EXTD=
EXTT0=
EXTT1=
EXTT2=
EXTT3=
EXTT4=
EXTT5=
EXTT6=
EXTT7=
EXTT8=
EXTT9=
EXTT10=
EXTT11=
EXTT12=
EXTT13=
EXTT14=
EXTT15=
PLAYORDER=
